<svg width="589" height="189" viewBox="0 0 589 189" fill="none" xmlns="http://www.w3.org/2000/svg">
<path d="M12.376 43L0.026 4.52H8.866L18.824 36.604L28.964 4.52H37.18L24.856 43H12.376ZM44.7269 43.52C41.8149 43.52 39.5442 42.766 37.9149 41.258C36.3029 39.75 35.4969 37.7653 35.4969 35.304C35.4969 32.6347 36.4242 30.546 38.2789 29.038C40.1336 27.5127 43.1496 26.6113 47.3269 26.334L51.9549 25.944V25.554C51.9549 23.5953 51.4609 22.252 50.4729 21.524C49.5022 20.7787 47.8382 20.406 45.4809 20.406C44.3889 20.406 43.1496 20.5013 41.7629 20.692C40.3762 20.8653 39.0502 21.1513 37.7849 21.55V15.31C39.1716 14.9113 40.6882 14.6167 42.3349 14.426C43.9989 14.218 45.5416 14.114 46.9629 14.114C49.9789 14.114 52.4489 14.4867 54.3729 15.232C56.2969 15.9773 57.7182 17.2253 58.6369 18.976C59.5729 20.7093 60.0409 23.0753 60.0409 26.074V43H53.2289L52.6569 40.166H52.2669C51.4002 41.3273 50.3082 42.1767 48.9909 42.714C47.6909 43.2513 46.2696 43.52 44.7269 43.52ZM43.6609 34.498C43.6609 36.6647 44.9176 37.748 47.4309 37.748C48.1936 37.748 48.9736 37.618 49.7709 37.358C50.5682 37.0807 51.2962 36.6127 51.9549 35.954V30.598L48.1589 30.91C46.5642 31.0487 45.4116 31.4213 44.7009 32.028C44.0076 32.6173 43.6609 33.4407 43.6609 34.498ZM78.9478 43.546C74.1984 43.546 70.5498 42.3413 68.0018 39.932C65.4538 37.5053 64.1798 33.8047 64.1798 28.83C64.1798 23.8033 65.5404 20.094 68.2618 17.702C70.9831 15.31 74.8311 14.114 79.8058 14.114C82.1284 14.114 84.2431 14.3307 86.1498 14.764V21.316C85.2484 21.1427 84.3731 21.0127 83.5238 20.926C82.6744 20.8393 81.8164 20.796 80.9498 20.796C78.1071 20.796 76.0271 21.4113 74.7098 22.642C73.3924 23.8727 72.7338 25.9093 72.7338 28.752C72.7338 31.6813 73.3664 33.77 74.6318 35.018C75.8971 36.2487 77.7691 36.864 80.2478 36.864C81.8771 36.864 83.8444 36.5433 86.1498 35.902V42.454C83.9658 43.182 81.5651 43.546 78.9478 43.546ZM90.4012 43V14.556H98.6952V43H90.4012ZM94.5352 10.422C92.7845 10.422 91.4932 10.0493 90.6612 9.304C89.8292 8.54133 89.4132 7.47533 89.4132 6.106C89.4132 4.73667 89.8292 3.67067 90.6612 2.908C91.4932 2.14533 92.7845 1.764 94.5352 1.764C96.2859 1.764 97.5772 2.14533 98.4092 2.908C99.2412 3.67067 99.6572 4.73667 99.6572 6.106C99.6572 7.47533 99.2412 8.54133 98.4092 9.304C97.5772 10.0493 96.2859 10.422 94.5352 10.422ZM104.354 43V14.556H111.192L111.738 17.442H112.128C114.295 15.2233 117.077 14.114 120.474 14.114C122.346 14.114 124.01 14.4867 125.466 15.232C126.939 15.96 128.092 17.1473 128.924 18.794C129.756 20.4233 130.172 22.5813 130.172 25.268V43H121.904V25.788C121.904 24.072 121.54 22.8847 120.812 22.226C120.101 21.5673 119.122 21.238 117.874 21.238C116.938 21.238 115.993 21.4287 115.04 21.81C114.087 22.174 113.281 22.7547 112.622 23.552V43H104.354ZM143.397 43.52C140.485 43.52 138.214 42.766 136.585 41.258C134.973 39.75 134.167 37.7653 134.167 35.304C134.167 32.6347 135.094 30.546 136.949 29.038C138.804 27.5127 141.82 26.6113 145.997 26.334L150.625 25.944V25.554C150.625 23.5953 150.131 22.252 149.143 21.524C148.172 20.7787 146.508 20.406 144.151 20.406C143.059 20.406 141.82 20.5013 140.433 20.692C139.046 20.8653 137.72 21.1513 136.455 21.55V15.31C137.842 14.9113 139.358 14.6167 141.005 14.426C142.669 14.218 144.212 14.114 145.633 14.114C148.649 14.114 151.119 14.4867 153.043 15.232C154.967 15.9773 156.388 17.2253 157.307 18.976C158.243 20.7093 158.711 23.0753 158.711 26.074V43H151.899L151.327 40.166H150.937C150.07 41.3273 148.978 42.1767 147.661 42.714C146.361 43.2513 144.94 43.52 143.397 43.52ZM142.331 34.498C142.331 36.6647 143.588 37.748 146.101 37.748C146.864 37.748 147.644 37.618 148.441 37.358C149.238 37.0807 149.966 36.6127 150.625 35.954V30.598L146.829 30.91C145.234 31.0487 144.082 31.4213 143.371 32.028C142.678 32.6173 142.331 33.4407 142.331 34.498ZM174.524 43.494C172.426 43.494 170.485 43.0173 168.7 42.064C166.932 41.1107 165.51 39.594 164.436 37.514C163.378 35.434 162.85 32.7213 162.85 29.376C162.85 24.4187 164.167 20.6313 166.802 18.014C169.436 15.3967 173.293 14.088 178.372 14.088C178.944 14.088 179.507 14.114 180.062 14.166C180.634 14.2007 181.162 14.244 181.648 14.296V0.983999H189.942V43H182.974L182.48 40.01H182.09C181.275 41.0673 180.226 41.9167 178.944 42.558C177.678 43.182 176.205 43.494 174.524 43.494ZM176.968 36.734C177.817 36.734 178.658 36.578 179.49 36.266C180.339 35.954 181.058 35.4687 181.648 34.81V20.718C181.197 20.614 180.677 20.536 180.088 20.484C179.498 20.4147 178.918 20.38 178.346 20.38C175.971 20.38 174.186 21.0213 172.99 22.304C171.794 23.5867 171.196 25.7273 171.196 28.726C171.196 30.7887 171.438 32.4093 171.924 33.588C172.409 34.7493 173.076 35.564 173.926 36.032C174.792 36.5 175.806 36.734 176.968 36.734ZM208.18 43.546C203.933 43.546 200.562 42.3327 198.066 39.906C195.57 37.462 194.322 33.7787 194.322 28.856C194.322 23.8987 195.544 20.2067 197.988 17.78C200.432 15.336 203.829 14.114 208.18 14.114C212.531 14.114 215.928 15.336 218.372 17.78C220.816 20.224 222.038 23.8987 222.038 28.804C222.038 33.744 220.79 37.436 218.294 39.88C215.798 42.324 212.427 43.546 208.18 43.546ZM208.18 37.254C209.931 37.254 211.283 36.6647 212.236 35.486C213.207 34.29 213.692 32.0887 213.692 28.882C213.692 25.606 213.207 23.37 212.236 22.174C211.265 20.978 209.913 20.38 208.18 20.38C206.447 20.38 205.095 20.978 204.124 22.174C203.153 23.3527 202.668 25.554 202.668 28.778C202.668 32.0367 203.145 34.264 204.098 35.46C205.069 36.656 206.429 37.254 208.18 37.254ZM234.729 43.546C233.1 43.546 231.514 43.442 229.971 43.234C228.429 43.026 226.99 42.714 225.655 42.298V36.214C228.481 37.0633 231.471 37.488 234.625 37.488C236.497 37.488 237.815 37.2453 238.577 36.76C239.357 36.2573 239.747 35.564 239.747 34.68C239.747 33.9867 239.548 33.458 239.149 33.094C238.768 32.7127 238.109 32.4267 237.173 32.236L232.545 31.404C229.876 30.9013 227.935 29.974 226.721 28.622C225.508 27.27 224.901 25.4587 224.901 23.188C224.901 20.4667 225.993 18.274 228.177 16.61C230.379 14.946 233.75 14.114 238.291 14.114C239.678 14.114 241.021 14.192 242.321 14.348C243.639 14.504 244.826 14.7207 245.883 14.998V21.082C243.595 20.458 241.143 20.146 238.525 20.146C236.168 20.146 234.591 20.432 233.793 21.004C232.996 21.576 232.597 22.2433 232.597 23.006C232.597 23.63 232.779 24.1327 233.143 24.514C233.525 24.8953 234.192 25.1813 235.145 25.372L239.773 26.204C242.304 26.6893 244.211 27.556 245.493 28.804C246.793 30.052 247.443 31.9153 247.443 34.394C247.443 37.2367 246.334 39.4727 244.115 41.102C241.914 42.7313 238.785 43.546 234.729 43.546ZM278.212 43.546C272.856 43.546 268.913 42.376 266.382 40.036C263.852 37.696 262.586 33.9347 262.586 28.752C262.586 24.0373 263.73 20.4233 266.018 17.91C268.324 15.3793 271.582 14.114 275.794 14.114C279.833 14.114 282.901 15.388 284.998 17.936C287.096 20.4667 288.144 24.1587 288.144 29.012V31.17H270.88C271.002 33.4233 271.686 35.0093 272.934 35.928C274.182 36.8293 276.332 37.28 279.382 37.28C280.492 37.28 281.653 37.202 282.866 37.046C284.097 36.8727 285.328 36.6473 286.558 36.37V42.584C285.033 42.9307 283.594 43.1733 282.242 43.312C280.89 43.468 279.547 43.546 278.212 43.546ZM275.716 19.366C274.174 19.366 272.986 19.8773 272.154 20.9C271.34 21.9227 270.906 23.76 270.854 26.412H280.422C280.37 23.7773 279.946 21.9487 279.148 20.926C278.368 19.886 277.224 19.366 275.716 19.366ZM292.21 43V14.556H299.048L299.594 17.442H299.984C302.151 15.2233 304.933 14.114 308.33 14.114C310.202 14.114 311.866 14.4867 313.322 15.232C314.795 15.96 315.948 17.1473 316.78 18.794C317.612 20.4233 318.028 22.5813 318.028 25.268V43H309.76V25.788C309.76 24.072 309.396 22.8847 308.668 22.226C307.957 21.5673 306.978 21.238 305.73 21.238C304.794 21.238 303.849 21.4287 302.896 21.81C301.943 22.174 301.137 22.7547 300.478 23.552V43H292.21ZM336.141 43.52C332.709 43.52 330.066 42.6707 328.211 40.972C326.374 39.256 325.455 36.5433 325.455 32.834V21.082H320.827V14.556H325.455L326.963 4.52H333.723V14.556H341.211V21.082H333.723V31.534C333.723 33.4927 334.087 34.8447 334.815 35.59C335.56 36.3353 336.756 36.708 338.403 36.708C339.2 36.708 340.197 36.5953 341.393 36.37V42.922C340.648 43.0953 339.807 43.234 338.871 43.338C337.935 43.4593 337.025 43.52 336.141 43.52ZM344.896 43V14.556H351.682L352.306 18.222H352.722C353.52 16.818 354.577 15.7953 355.894 15.154C357.212 14.4953 358.659 14.166 360.236 14.166C360.67 14.166 361.086 14.1833 361.484 14.218C361.883 14.2527 362.238 14.3047 362.55 14.374V21.862C362.117 21.7753 361.649 21.7233 361.146 21.706C360.661 21.6713 360.193 21.654 359.742 21.654C358.529 21.654 357.307 21.888 356.076 22.356C354.846 22.8067 353.875 23.474 353.164 24.358V43H344.896ZM372.26 43.52C369.348 43.52 367.077 42.766 365.448 41.258C363.836 39.75 363.03 37.7653 363.03 35.304C363.03 32.6347 363.957 30.546 365.812 29.038C367.667 27.5127 370.683 26.6113 374.86 26.334L379.488 25.944V25.554C379.488 23.5953 378.994 22.252 378.006 21.524C377.035 20.7787 375.371 20.406 373.014 20.406C371.922 20.406 370.683 20.5013 369.296 20.692C367.909 20.8653 366.583 21.1513 365.318 21.55V15.31C366.705 14.9113 368.221 14.6167 369.868 14.426C371.532 14.218 373.075 14.114 374.496 14.114C377.512 14.114 379.982 14.4867 381.906 15.232C383.83 15.9773 385.251 17.2253 386.17 18.976C387.106 20.7093 387.574 23.0753 387.574 26.074V43H380.762L380.19 40.166H379.8C378.933 41.3273 377.841 42.1767 376.524 42.714C375.224 43.2513 373.803 43.52 372.26 43.52ZM371.194 34.498C371.194 36.6647 372.451 37.748 374.964 37.748C375.727 37.748 376.507 37.618 377.304 37.358C378.101 37.0807 378.829 36.6127 379.488 35.954V30.598L375.692 30.91C374.097 31.0487 372.945 31.4213 372.234 32.028C371.541 32.6173 371.194 33.4407 371.194 34.498ZM393.013 43V14.556H399.799L400.423 18.222H400.839C401.636 16.818 402.693 15.7953 404.011 15.154C405.328 14.4953 406.775 14.166 408.353 14.166C408.786 14.166 409.202 14.1833 409.601 14.218C409.999 14.2527 410.355 14.3047 410.667 14.374V21.862C410.233 21.7753 409.765 21.7233 409.263 21.706C408.777 21.6713 408.309 21.654 407.859 21.654C406.645 21.654 405.423 21.888 404.193 22.356C402.962 22.8067 401.991 23.474 401.281 24.358V43H393.013ZM420.376 43.52C417.464 43.52 415.193 42.766 413.564 41.258C411.952 39.75 411.146 37.7653 411.146 35.304C411.146 32.6347 412.073 30.546 413.928 29.038C415.783 27.5127 418.799 26.6113 422.976 26.334L427.604 25.944V25.554C427.604 23.5953 427.11 22.252 426.122 21.524C425.151 20.7787 423.487 20.406 421.13 20.406C420.038 20.406 418.799 20.5013 417.412 20.692C416.025 20.8653 414.699 21.1513 413.434 21.55V15.31C414.821 14.9113 416.337 14.6167 417.984 14.426C419.648 14.218 421.191 14.114 422.612 14.114C425.628 14.114 428.098 14.4867 430.022 15.232C431.946 15.9773 433.367 17.2253 434.286 18.976C435.222 20.7093 435.69 23.0753 435.69 26.074V43H428.878L428.306 40.166H427.916C427.049 41.3273 425.957 42.1767 424.64 42.714C423.34 43.2513 421.919 43.52 420.376 43.52ZM419.31 34.498C419.31 36.6647 420.567 37.748 423.08 37.748C423.843 37.748 424.623 37.618 425.42 37.358C426.217 37.0807 426.945 36.6127 427.604 35.954V30.598L423.808 30.91C422.213 31.0487 421.061 31.4213 420.35 32.028C419.657 32.6173 419.31 33.4407 419.31 34.498ZM428.046 9.59C427.197 9.59 426.399 9.45133 425.654 9.174C424.909 8.89667 424.189 8.61067 423.496 8.316C422.855 8.02133 422.222 7.76133 421.598 7.536C420.974 7.31066 420.341 7.198 419.7 7.198C417.897 7.198 416.233 7.93466 414.708 9.408V4.208C416.025 2.87333 417.733 2.206 419.83 2.206C420.679 2.206 421.477 2.34466 422.222 2.622C422.967 2.882 423.687 3.168 424.38 3.48C425.021 3.75733 425.654 4.01733 426.278 4.26C426.902 4.48533 427.535 4.598 428.176 4.598C429.979 4.598 431.643 3.86133 433.168 2.388V7.588C431.851 8.92266 430.143 9.59 428.046 9.59ZM453.687 43.546C449.44 43.546 446.069 42.3327 443.573 39.906C441.077 37.462 439.829 33.7787 439.829 28.856C439.829 23.8987 441.051 20.2067 443.495 17.78C445.939 15.336 449.336 14.114 453.687 14.114C458.038 14.114 461.435 15.336 463.879 17.78C466.323 20.224 467.545 23.8987 467.545 28.804C467.545 33.744 466.297 37.436 463.801 39.88C461.305 42.324 457.934 43.546 453.687 43.546ZM453.687 37.254C455.438 37.254 456.79 36.6647 457.743 35.486C458.714 34.29 459.199 32.0887 459.199 28.882C459.199 25.606 458.714 23.37 457.743 22.174C456.772 20.978 455.42 20.38 453.687 20.38C451.954 20.38 450.602 20.978 449.631 22.174C448.66 23.3527 448.175 25.554 448.175 28.778C448.175 32.0367 448.652 34.264 449.605 35.46C450.576 36.656 451.936 37.254 453.687 37.254ZM484.472 43V14.556H491.31L491.856 17.442H492.246C494.412 15.2233 497.194 14.114 500.592 14.114C502.464 14.114 504.128 14.4867 505.584 15.232C507.057 15.96 508.21 17.1473 509.042 18.794C509.874 20.4233 510.29 22.5813 510.29 25.268V43H502.022V25.788C502.022 24.072 501.658 22.8847 500.93 22.226C500.219 21.5673 499.24 21.238 497.992 21.238C497.056 21.238 496.111 21.4287 495.158 21.81C494.204 22.174 493.398 22.7547 492.74 23.552V43H484.472ZM528.299 43.546C524.052 43.546 520.681 42.3327 518.185 39.906C515.689 37.462 514.441 33.7787 514.441 28.856C514.441 23.8987 515.663 20.2067 518.107 17.78C520.551 15.336 523.948 14.114 528.299 14.114C532.65 14.114 536.047 15.336 538.491 17.78C540.935 20.224 542.157 23.8987 542.157 28.804C542.157 33.744 540.909 37.436 538.413 39.88C535.917 42.324 532.546 43.546 528.299 43.546ZM528.299 37.254C530.05 37.254 531.402 36.6647 532.355 35.486C533.326 34.29 533.811 32.0887 533.811 28.882C533.811 25.606 533.326 23.37 532.355 22.174C531.384 20.978 530.032 20.38 528.299 20.38C526.566 20.38 525.214 20.978 524.243 22.174C523.272 23.3527 522.787 25.554 522.787 28.778C522.787 32.0367 523.264 34.264 524.217 35.46C525.188 36.656 526.548 37.254 528.299 37.254ZM554.848 43.546C553.219 43.546 551.633 43.442 550.09 43.234C548.547 43.026 547.109 42.714 545.774 42.298V36.214C548.599 37.0633 551.589 37.488 554.744 37.488C556.616 37.488 557.933 37.2453 558.696 36.76C559.476 36.2573 559.866 35.564 559.866 34.68C559.866 33.9867 559.667 33.458 559.268 33.094C558.887 32.7127 558.228 32.4267 557.292 32.236L552.664 31.404C549.995 30.9013 548.053 29.974 546.84 28.622C545.627 27.27 545.02 25.4587 545.02 23.188C545.02 20.4667 546.112 18.274 548.296 16.61C550.497 14.946 553.869 14.114 558.41 14.114C559.797 14.114 561.14 14.192 562.44 14.348C563.757 14.504 564.945 14.7207 566.002 14.998V21.082C563.714 20.458 561.261 20.146 558.644 20.146C556.287 20.146 554.709 20.432 553.912 21.004C553.115 21.576 552.716 22.2433 552.716 23.006C552.716 23.63 552.898 24.1327 553.262 24.514C553.643 24.8953 554.311 25.1813 555.264 25.372L559.892 26.204C562.423 26.6893 564.329 27.556 565.612 28.804C566.912 30.052 567.562 31.9153 567.562 34.394C567.562 37.2367 566.453 39.4727 564.234 41.102C562.033 42.7313 558.904 43.546 554.848 43.546ZM3.458 110V71.52H30.472V78.28H11.804V86.938H27.82V93.698H11.804V103.24H30.732V110H3.458ZM51.6076 110.494C45.9916 110.494 41.8836 109.142 39.2836 106.438C36.6836 103.734 35.3836 99.6087 35.3836 94.062V71.52H43.8076V94.894C43.8076 97.9447 44.4576 100.155 45.7576 101.524C47.0576 102.893 49.0076 103.578 51.6076 103.578C54.2076 103.578 56.1489 102.893 57.4316 101.524C58.7316 100.155 59.3816 97.9447 59.3816 94.894V71.52H67.6496V94.062C67.6496 99.6087 66.3582 103.734 63.7756 106.438C61.2102 109.142 57.1542 110.494 51.6076 110.494ZM70.2146 110L82.6426 71.52H94.9406L107.369 110H99.0486L95.8766 99.73H81.6026L78.4306 110H70.2146ZM83.6826 92.996H93.7966L88.7266 76.642L83.6826 92.996ZM131.235 110.546C129.606 110.546 128.02 110.442 126.477 110.234C124.934 110.026 123.496 109.714 122.161 109.298V103.214C124.986 104.063 127.976 104.488 131.131 104.488C133.003 104.488 134.32 104.245 135.083 103.76C135.863 103.257 136.253 102.564 136.253 101.68C136.253 100.987 136.054 100.458 135.655 100.094C135.274 99.7127 134.615 99.4267 133.679 99.236L129.051 98.404C126.382 97.9013 124.44 96.974 123.227 95.622C122.014 94.27 121.407 92.4587 121.407 90.188C121.407 87.4667 122.499 85.274 124.683 83.61C126.884 81.946 130.256 81.114 134.797 81.114C136.184 81.114 137.527 81.192 138.827 81.348C140.144 81.504 141.332 81.7207 142.389 81.998V88.082C140.101 87.458 137.648 87.146 135.031 87.146C132.674 87.146 131.096 87.432 130.299 88.004C129.502 88.576 129.103 89.2433 129.103 90.006C129.103 90.63 129.285 91.1327 129.649 91.514C130.03 91.8953 130.698 92.1813 131.651 92.372L136.279 93.204C138.81 93.6893 140.716 94.556 141.999 95.804C143.299 97.052 143.949 98.9153 143.949 101.394C143.949 104.237 142.84 106.473 140.621 108.102C138.42 109.731 135.291 110.546 131.235 110.546ZM162.136 110.546C156.78 110.546 152.837 109.376 150.306 107.036C147.776 104.696 146.51 100.935 146.51 95.752C146.51 91.0373 147.654 87.4233 149.942 84.91C152.248 82.3793 155.506 81.114 159.718 81.114C163.757 81.114 166.825 82.388 168.922 84.936C171.02 87.4667 172.068 91.1587 172.068 96.012V98.17H154.804C154.926 100.423 155.61 102.009 156.858 102.928C158.106 103.829 160.256 104.28 163.306 104.28C164.416 104.28 165.577 104.202 166.79 104.046C168.021 103.873 169.252 103.647 170.482 103.37V109.584C168.957 109.931 167.518 110.173 166.166 110.312C164.814 110.468 163.471 110.546 162.136 110.546ZM159.64 86.366C158.098 86.366 156.91 86.8773 156.078 87.9C155.264 88.9227 154.83 90.76 154.778 93.412H164.346C164.294 90.7773 163.87 88.9487 163.072 87.926C162.292 86.886 161.148 86.366 159.64 86.366ZM176.134 110V81.556H182.972L183.518 84.468H183.908C185.936 82.232 188.597 81.114 191.89 81.114C193.415 81.114 194.802 81.4087 196.05 81.998C197.298 82.57 198.321 83.506 199.118 84.806C200.349 83.4887 201.701 82.544 203.174 81.972C204.665 81.4 206.155 81.114 207.646 81.114C209.466 81.114 211.087 81.4867 212.508 82.232C213.929 82.96 215.047 84.1473 215.862 85.794C216.677 87.4233 217.084 89.59 217.084 92.294V110H208.816V92.736C208.816 91.0373 208.469 89.8673 207.776 89.226C207.083 88.5673 206.19 88.238 205.098 88.238C204.318 88.238 203.529 88.394 202.732 88.706C201.952 89.0007 201.267 89.4947 200.678 90.188C200.73 90.7773 200.756 91.3927 200.756 92.034V110H192.644V92.736C192.644 91.0373 192.323 89.8673 191.682 89.226C191.041 88.5673 190.174 88.238 189.082 88.238C188.233 88.238 187.383 88.4373 186.534 88.836C185.685 89.2173 184.974 89.8067 184.402 90.604V110H176.134ZM252.616 121.44V107.296H252.226C251.411 108.301 250.38 109.09 249.132 109.662C247.884 110.234 246.462 110.52 244.868 110.52C242.874 110.52 241.037 110.035 239.356 109.064C237.692 108.076 236.348 106.551 235.326 104.488C234.32 102.408 233.818 99.7213 233.818 96.428C233.818 91.4013 235.152 87.5967 237.822 85.014C240.491 82.414 244.53 81.114 249.938 81.114C251.775 81.114 253.673 81.2527 255.632 81.53C257.59 81.79 259.35 82.18 260.91 82.7V121.44H252.616ZM248.014 103.734C248.846 103.734 249.669 103.595 250.484 103.318C251.298 103.041 252.009 102.607 252.616 102.018V87.744C252.165 87.64 251.645 87.5533 251.056 87.484C250.466 87.4147 249.851 87.38 249.21 87.38C246.939 87.38 245.197 88.0213 243.984 89.304C242.77 90.5867 242.164 92.736 242.164 95.752C242.164 97.832 242.406 99.4527 242.892 100.614C243.377 101.758 244.062 102.564 244.946 103.032C245.83 103.5 246.852 103.734 248.014 103.734ZM276.158 110.494C274.268 110.494 272.587 110.13 271.114 109.402C269.64 108.657 268.479 107.469 267.63 105.84C266.78 104.211 266.356 102.053 266.356 99.366V81.556H274.65V98.794C274.65 100.51 275.005 101.697 275.716 102.356C276.426 103.015 277.371 103.344 278.55 103.344C279.416 103.344 280.326 103.153 281.28 102.772C282.233 102.391 283.03 101.81 283.672 101.03V81.556H291.94V110H285.128L284.556 107.14H284.192C281.99 109.376 279.312 110.494 276.158 110.494ZM305.379 110.52C302.467 110.52 300.196 109.766 298.567 108.258C296.955 106.75 296.149 104.765 296.149 102.304C296.149 99.6347 297.076 97.546 298.931 96.038C300.786 94.5127 303.802 93.6113 307.979 93.334L312.607 92.944V92.554C312.607 90.5953 312.113 89.252 311.125 88.524C310.154 87.7787 308.49 87.406 306.133 87.406C305.041 87.406 303.802 87.5013 302.415 87.692C301.028 87.8653 299.702 88.1513 298.437 88.55V82.31C299.824 81.9113 301.34 81.6167 302.987 81.426C304.651 81.218 306.194 81.114 307.615 81.114C310.631 81.114 313.101 81.4867 315.025 82.232C316.949 82.9773 318.37 84.2253 319.289 85.976C320.225 87.7093 320.693 90.0753 320.693 93.074V110H313.881L313.309 107.166H312.919C312.052 108.327 310.96 109.177 309.643 109.714C308.343 110.251 306.922 110.52 305.379 110.52ZM304.313 101.498C304.313 103.665 305.57 104.748 308.083 104.748C308.846 104.748 309.626 104.618 310.423 104.358C311.22 104.081 311.948 103.613 312.607 102.954V97.598L308.811 97.91C307.216 98.0487 306.064 98.4213 305.353 99.028C304.66 99.6173 304.313 100.441 304.313 101.498ZM326.132 110V81.556H332.918L333.542 85.222H333.958C334.755 83.818 335.812 82.7953 337.13 82.154C338.447 81.4953 339.894 81.166 341.472 81.166C341.905 81.166 342.321 81.1833 342.72 81.218C343.118 81.2527 343.474 81.3047 343.786 81.374V88.862C343.352 88.7753 342.884 88.7233 342.382 88.706C341.896 88.6713 341.428 88.654 340.978 88.654C339.764 88.654 338.542 88.888 337.312 89.356C336.081 89.8067 335.11 90.474 334.4 91.358V110H326.132ZM360.707 110.546C355.351 110.546 351.408 109.376 348.877 107.036C346.347 104.696 345.081 100.935 345.081 95.752C345.081 91.0373 346.225 87.4233 348.513 84.91C350.819 82.3793 354.077 81.114 358.289 81.114C362.328 81.114 365.396 82.388 367.493 84.936C369.591 87.4667 370.639 91.1587 370.639 96.012V98.17H353.375C353.497 100.423 354.181 102.009 355.429 102.928C356.677 103.829 358.827 104.28 361.877 104.28C362.987 104.28 364.148 104.202 365.361 104.046C366.592 103.873 367.823 103.647 369.053 103.37V109.584C367.528 109.931 366.089 110.173 364.737 110.312C363.385 110.468 362.042 110.546 360.707 110.546ZM358.211 86.366C356.669 86.366 355.481 86.8773 354.649 87.9C353.835 88.9227 353.401 90.76 353.349 93.412H362.917C362.865 90.7773 362.441 88.9487 361.643 87.926C360.863 86.886 359.719 86.366 358.211 86.366ZM374.705 110V81.556H381.543L382.089 84.442H382.479C384.646 82.2233 387.428 81.114 390.825 81.114C392.697 81.114 394.361 81.4867 395.817 82.232C397.29 82.96 398.443 84.1473 399.275 85.794C400.107 87.4233 400.523 89.5813 400.523 92.268V110H392.255V92.788C392.255 91.072 391.891 89.8847 391.163 89.226C390.452 88.5673 389.473 88.238 388.225 88.238C387.289 88.238 386.344 88.4287 385.391 88.81C384.438 89.174 383.632 89.7547 382.973 90.552V110H374.705ZM418.636 110.52C415.204 110.52 412.561 109.671 410.706 107.972C408.869 106.256 407.95 103.543 407.95 99.834V88.082H403.322V81.556H407.95L409.458 71.52H416.218V81.556H423.706V88.082H416.218V98.534C416.218 100.493 416.582 101.845 417.31 102.59C418.055 103.335 419.251 103.708 420.898 103.708C421.695 103.708 422.692 103.595 423.888 103.37V109.922C423.143 110.095 422.302 110.234 421.366 110.338C420.43 110.459 419.52 110.52 418.636 110.52ZM441.413 110.546C436.057 110.546 432.114 109.376 429.583 107.036C427.052 104.696 425.787 100.935 425.787 95.752C425.787 91.0373 426.931 87.4233 429.219 84.91C431.524 82.3793 434.783 81.114 438.995 81.114C443.034 81.114 446.102 82.388 448.199 84.936C450.296 87.4667 451.345 91.1587 451.345 96.012V98.17H434.081C434.202 100.423 434.887 102.009 436.135 102.928C437.383 103.829 439.532 104.28 442.583 104.28C443.692 104.28 444.854 104.202 446.067 104.046C447.298 103.873 448.528 103.647 449.759 103.37V109.584C448.234 109.931 446.795 110.173 445.443 110.312C444.091 110.468 442.748 110.546 441.413 110.546ZM438.917 86.366C437.374 86.366 436.187 86.8773 435.355 87.9C434.54 88.9227 434.107 90.76 434.055 93.412H443.623C443.571 90.7773 443.146 88.9487 442.349 87.926C441.569 86.886 440.425 86.366 438.917 86.366ZM455.411 110V81.556H462.249L462.795 84.442H463.185C465.351 82.2233 468.133 81.114 471.531 81.114C473.403 81.114 475.067 81.4867 476.523 82.232C477.996 82.96 479.149 84.1473 479.981 85.794C480.813 87.4233 481.229 89.5813 481.229 92.268V110H472.961V92.788C472.961 91.072 472.597 89.8847 471.869 89.226C471.158 88.5673 470.179 88.238 468.931 88.238C467.995 88.238 467.05 88.4287 466.097 88.81C465.143 89.174 464.337 89.7547 463.679 90.552V110H455.411ZM494.454 110.52C491.542 110.52 489.271 109.766 487.642 108.258C486.03 106.75 485.224 104.765 485.224 102.304C485.224 99.6347 486.151 97.546 488.006 96.038C489.86 94.5127 492.876 93.6113 497.054 93.334L501.682 92.944V92.554C501.682 90.5953 501.188 89.252 500.2 88.524C499.229 87.7787 497.565 87.406 495.208 87.406C494.116 87.406 492.876 87.5013 491.49 87.692C490.103 87.8653 488.777 88.1513 487.512 88.55V82.31C488.898 81.9113 490.415 81.6167 492.062 81.426C493.726 81.218 495.268 81.114 496.69 81.114C499.706 81.114 502.176 81.4867 504.1 82.232C506.024 82.9773 507.445 84.2253 508.364 85.976C509.3 87.7093 509.768 90.0753 509.768 93.074V110H502.956L502.384 107.166H501.994C501.127 108.327 500.035 109.177 498.718 109.714C497.418 110.251 495.996 110.52 494.454 110.52ZM493.388 101.498C493.388 103.665 494.644 104.748 497.158 104.748C497.92 104.748 498.7 104.618 499.498 104.358C500.295 104.081 501.023 103.613 501.682 102.954V97.598L497.886 97.91C496.291 98.0487 495.138 98.4213 494.428 99.028C493.734 99.6173 493.388 100.441 493.388 101.498ZM535.562 110.52C532.65 110.52 530.38 109.766 528.75 108.258C527.138 106.75 526.332 104.765 526.332 102.304C526.332 99.6347 527.26 97.546 529.114 96.038C530.969 94.5127 533.985 93.6113 538.162 93.334L542.79 92.944V92.554C542.79 90.5953 542.296 89.252 541.308 88.524C540.338 87.7787 538.674 87.406 536.316 87.406C535.224 87.406 533.985 87.5013 532.598 87.692C531.212 87.8653 529.886 88.1513 528.62 88.55V82.31C530.007 81.9113 531.524 81.6167 533.17 81.426C534.834 81.218 536.377 81.114 537.798 81.114C540.814 81.114 543.284 81.4867 545.208 82.232C547.132 82.9773 548.554 84.2253 549.472 85.976C550.408 87.7093 550.876 90.0753 550.876 93.074V110H544.064L543.492 107.166H543.102C542.236 108.327 541.144 109.177 539.826 109.714C538.526 110.251 537.105 110.52 535.562 110.52ZM534.496 101.498C534.496 103.665 535.753 104.748 538.266 104.748C539.029 104.748 539.809 104.618 540.606 104.358C541.404 104.081 542.132 103.613 542.79 102.954V97.598L538.994 97.91C537.4 98.0487 536.247 98.4213 535.536 99.028C534.843 99.6173 534.496 100.441 534.496 101.498ZM3.094 188.44V148.556H10.062L10.556 151.598H10.946C11.7607 150.541 12.8007 149.7 14.066 149.076C15.3487 148.435 16.8307 148.114 18.512 148.114C20.6093 148.114 22.542 148.591 24.31 149.544C26.078 150.48 27.4907 151.988 28.548 154.068C29.6227 156.148 30.16 158.869 30.16 162.232C30.16 167.189 28.8427 170.977 26.208 173.594C23.5907 176.211 19.7427 177.52 14.664 177.52C14.092 177.52 13.52 177.494 12.948 177.442C12.3933 177.407 11.8647 177.364 11.362 177.312V188.44H3.094ZM14.664 171.228C17.056 171.228 18.85 170.587 20.046 169.304C21.242 168.021 21.84 165.881 21.84 162.882C21.84 160.802 21.5887 159.181 21.086 158.02C20.6007 156.859 19.9247 156.044 19.058 155.576C18.2087 155.108 17.212 154.874 16.068 154.874C15.2187 154.874 14.3693 155.03 13.52 155.342C12.688 155.654 11.9687 156.139 11.362 156.798V170.89C11.83 170.994 12.3587 171.081 12.948 171.15C13.5373 171.202 14.1093 171.228 14.664 171.228ZM42.3402 177.52C39.4282 177.52 37.1575 176.766 35.5282 175.258C33.9162 173.75 33.1102 171.765 33.1102 169.304C33.1102 166.635 34.0375 164.546 35.8922 163.038C37.7469 161.513 40.7629 160.611 44.9402 160.334L49.5682 159.944V159.554C49.5682 157.595 49.0742 156.252 48.0862 155.524C47.1155 154.779 45.4515 154.406 43.0942 154.406C42.0022 154.406 40.7629 154.501 39.3762 154.692C37.9895 154.865 36.6635 155.151 35.3982 155.55V149.31C36.7849 148.911 38.3015 148.617 39.9482 148.426C41.6122 148.218 43.1549 148.114 44.5762 148.114C47.5922 148.114 50.0622 148.487 51.9862 149.232C53.9102 149.977 55.3315 151.225 56.2502 152.976C57.1862 154.709 57.6542 157.075 57.6542 160.074V177H50.8422L50.2702 174.166H49.8802C49.0135 175.327 47.9215 176.177 46.6042 176.714C45.3042 177.251 43.8829 177.52 42.3402 177.52ZM41.2742 168.498C41.2742 170.665 42.5309 171.748 45.0442 171.748C45.8069 171.748 46.5869 171.618 47.3842 171.358C48.1815 171.081 48.9095 170.613 49.5682 169.954V164.598L45.7722 164.91C44.1775 165.049 43.0249 165.421 42.3142 166.028C41.6209 166.617 41.2742 167.441 41.2742 168.498ZM63.0931 177V148.556H69.8791L70.5031 152.222H70.9191C71.7164 150.818 72.7737 149.795 74.0911 149.154C75.4084 148.495 76.8557 148.166 78.4331 148.166C78.8664 148.166 79.2824 148.183 79.6811 148.218C80.0797 148.253 80.4351 148.305 80.7471 148.374V155.862C80.3137 155.775 79.8457 155.723 79.3431 155.706C78.8577 155.671 78.3897 155.654 77.9391 155.654C76.7257 155.654 75.5037 155.888 74.2731 156.356C73.0424 156.807 72.0717 157.474 71.3611 158.358V177H63.0931ZM97.1726 177.52C93.7406 177.52 91.0972 176.671 89.2426 174.972C87.4052 173.256 86.4866 170.543 86.4866 166.834V155.082H81.8586V148.556H86.4866L87.9946 138.52H94.7546V148.556H102.243V155.082H94.7546V165.534C94.7546 167.493 95.1186 168.845 95.8466 169.59C96.5919 170.335 97.7879 170.708 99.4346 170.708C100.232 170.708 101.229 170.595 102.425 170.37V176.922C101.679 177.095 100.839 177.234 99.9026 177.338C98.9666 177.459 98.0566 177.52 97.1726 177.52ZM106.182 177V148.556H114.476V177H106.182ZM110.316 144.422C108.565 144.422 107.274 144.049 106.442 143.304C105.61 142.541 105.194 141.475 105.194 140.106C105.194 138.737 105.61 137.671 106.442 136.908C107.274 136.145 108.565 135.764 110.316 135.764C112.067 135.764 113.358 136.145 114.19 136.908C115.022 137.671 115.438 138.737 115.438 140.106C115.438 141.475 115.022 142.541 114.19 143.304C113.358 144.049 112.067 144.422 110.316 144.422ZM120.135 177V148.556H126.921L127.545 152.222H127.961C128.758 150.818 129.815 149.795 131.133 149.154C132.45 148.495 133.897 148.166 135.475 148.166C135.908 148.166 136.324 148.183 136.723 148.218C137.121 148.253 137.477 148.305 137.789 148.374V155.862C137.355 155.775 136.887 155.723 136.385 155.706C135.899 155.671 135.431 155.654 134.981 155.654C133.767 155.654 132.545 155.888 131.315 156.356C130.084 156.807 129.113 157.474 128.403 158.358V177H120.135ZM163.644 177.494C161.547 177.494 159.606 177.017 157.82 176.064C156.052 175.111 154.631 173.594 153.556 171.514C152.499 169.434 151.97 166.721 151.97 163.376C151.97 158.419 153.288 154.631 155.922 152.014C158.557 149.397 162.414 148.088 167.492 148.088C168.064 148.088 168.628 148.114 169.182 148.166C169.754 148.201 170.283 148.244 170.768 148.296V134.984H179.062V177H172.094L171.6 174.01H171.21C170.396 175.067 169.347 175.917 168.064 176.558C166.799 177.182 165.326 177.494 163.644 177.494ZM166.088 170.734C166.938 170.734 167.778 170.578 168.61 170.266C169.46 169.954 170.179 169.469 170.768 168.81V154.718C170.318 154.614 169.798 154.536 169.208 154.484C168.619 154.415 168.038 154.38 167.466 154.38C165.092 154.38 163.306 155.021 162.11 156.304C160.914 157.587 160.316 159.727 160.316 162.726C160.316 164.789 160.559 166.409 161.044 167.588C161.53 168.749 162.197 169.564 163.046 170.032C163.913 170.5 164.927 170.734 166.088 170.734ZM199.069 177.546C193.713 177.546 189.769 176.376 187.239 174.036C184.708 171.696 183.443 167.935 183.443 162.752C183.443 158.037 184.587 154.423 186.875 151.91C189.18 149.379 192.439 148.114 196.651 148.114C200.689 148.114 203.757 149.388 205.855 151.936C207.952 154.467 209.001 158.159 209.001 163.012V165.17H191.737C191.858 167.423 192.543 169.009 193.791 169.928C195.039 170.829 197.188 171.28 200.239 171.28C201.348 171.28 202.509 171.202 203.723 171.046C204.953 170.873 206.184 170.647 207.415 170.37V176.584C205.889 176.931 204.451 177.173 203.099 177.312C201.747 177.468 200.403 177.546 199.069 177.546ZM196.573 153.366C195.03 153.366 193.843 153.877 193.011 154.9C192.196 155.923 191.763 157.76 191.711 160.412H201.279C201.227 157.777 200.802 155.949 200.005 154.926C199.225 153.886 198.081 153.366 196.573 153.366ZM240.052 177.494C234.748 177.494 230.857 176.558 228.378 174.686C225.899 172.814 224.66 170.387 224.66 167.406C224.66 165.343 225.249 163.515 226.428 161.92C227.607 160.308 229.314 159.034 231.55 158.098C229.418 156.919 227.91 155.55 227.026 153.99C226.159 152.413 225.726 150.653 225.726 148.712C225.726 145.523 226.957 142.949 229.418 140.99C231.897 139.014 235.563 138.026 240.416 138.026C244.732 138.026 248.086 138.893 250.478 140.626C252.887 142.359 254.092 144.734 254.092 147.75C254.092 149.57 253.633 151.251 252.714 152.794C251.813 154.337 250.296 155.645 248.164 156.72C250.781 157.916 252.601 159.303 253.624 160.88C254.647 162.44 255.158 164.295 255.158 166.444C255.158 168.559 254.595 170.457 253.468 172.138C252.359 173.802 250.686 175.111 248.45 176.064C246.214 177.017 243.415 177.494 240.052 177.494ZM233.682 148.4C233.682 149.371 233.907 150.211 234.358 150.922C234.826 151.633 235.693 152.291 236.958 152.898C238.241 153.505 240.095 154.129 242.522 154.77C244.047 153.921 245.139 153.002 245.798 152.014C246.474 151.009 246.812 149.865 246.812 148.582C246.812 147.057 246.257 145.887 245.148 145.072C244.039 144.257 242.427 143.85 240.312 143.85C238.024 143.85 236.343 144.275 235.268 145.124C234.211 145.973 233.682 147.065 233.682 148.4ZM232.538 166.444C232.538 168.125 233.153 169.417 234.384 170.318C235.632 171.219 237.53 171.67 240.078 171.67C242.557 171.67 244.377 171.254 245.538 170.422C246.717 169.59 247.306 168.429 247.306 166.938C247.306 165.933 247.055 165.066 246.552 164.338C246.049 163.61 245.157 162.96 243.874 162.388C242.609 161.816 240.823 161.244 238.518 160.672C237.981 160.533 237.469 160.395 236.984 160.256C235.459 160.967 234.332 161.877 233.604 162.986C232.893 164.078 232.538 165.231 232.538 166.444ZM282.869 177.494C280.771 177.494 278.83 177.017 277.045 176.064C275.277 175.111 273.855 173.594 272.781 171.514C271.723 169.434 271.195 166.721 271.195 163.376C271.195 158.419 272.512 154.631 275.147 152.014C277.781 149.397 281.638 148.088 286.717 148.088C287.289 148.088 287.852 148.114 288.407 148.166C288.979 148.201 289.507 148.244 289.993 148.296V134.984H298.287V177H291.319L290.825 174.01H290.435C289.62 175.067 288.571 175.917 287.289 176.558C286.023 177.182 284.55 177.494 282.869 177.494ZM285.313 170.734C286.162 170.734 287.003 170.578 287.835 170.266C288.684 169.954 289.403 169.469 289.993 168.81V154.718C289.542 154.614 289.022 154.536 288.433 154.484C287.843 154.415 287.263 154.38 286.691 154.38C284.316 154.38 282.531 155.021 281.335 156.304C280.139 157.587 279.541 159.727 279.541 162.726C279.541 164.789 279.783 166.409 280.269 167.588C280.754 168.749 281.421 169.564 282.271 170.032C283.137 170.5 284.151 170.734 285.313 170.734ZM318.293 177.546C312.937 177.546 308.993 176.376 306.463 174.036C303.932 171.696 302.667 167.935 302.667 162.752C302.667 158.037 303.811 154.423 306.099 151.91C308.404 149.379 311.663 148.114 315.875 148.114C319.913 148.114 322.981 149.388 325.079 151.936C327.176 154.467 328.225 158.159 328.225 163.012V165.17H310.961C311.082 167.423 311.767 169.009 313.015 169.928C314.263 170.829 316.412 171.28 319.463 171.28C320.572 171.28 321.733 171.202 322.947 171.046C324.177 170.873 325.408 170.647 326.639 170.37V176.584C325.113 176.931 323.675 177.173 322.323 177.312C320.971 177.468 319.627 177.546 318.293 177.546ZM315.797 153.366C314.254 153.366 313.067 153.877 312.235 154.9C311.42 155.923 310.987 157.76 310.935 160.412H320.503C320.451 157.777 320.026 155.949 319.229 154.926C318.449 153.886 317.305 153.366 315.797 153.366ZM344.872 177V148.556H351.71L352.256 151.442H352.646C354.813 149.223 357.595 148.114 360.992 148.114C362.864 148.114 364.528 148.487 365.984 149.232C367.457 149.96 368.61 151.147 369.442 152.794C370.274 154.423 370.69 156.581 370.69 159.268V177H362.422V159.788C362.422 158.072 362.058 156.885 361.33 156.226C360.619 155.567 359.64 155.238 358.392 155.238C357.456 155.238 356.511 155.429 355.558 155.81C354.605 156.174 353.799 156.755 353.14 157.552V177H344.872ZM388.699 177.546C384.453 177.546 381.081 176.333 378.585 173.906C376.089 171.462 374.841 167.779 374.841 162.856C374.841 157.899 376.063 154.207 378.507 151.78C380.951 149.336 384.349 148.114 388.699 148.114C393.05 148.114 396.447 149.336 398.891 151.78C401.335 154.224 402.557 157.899 402.557 162.804C402.557 167.744 401.309 171.436 398.813 173.88C396.317 176.324 392.946 177.546 388.699 177.546ZM388.699 171.254C390.45 171.254 391.802 170.665 392.755 169.486C393.726 168.29 394.211 166.089 394.211 162.882C394.211 159.606 393.726 157.37 392.755 156.174C391.785 154.978 390.433 154.38 388.699 154.38C386.966 154.38 385.614 154.978 384.643 156.174C383.673 157.353 383.187 159.554 383.187 162.778C383.187 166.037 383.664 168.264 384.617 169.46C385.588 170.656 386.949 171.254 388.699 171.254ZM413.157 177L403.173 148.556H411.831L418.591 169.486L425.377 148.556H433.541L423.531 177H413.157ZM449.958 177.546C444.602 177.546 440.659 176.376 438.128 174.036C435.598 171.696 434.332 167.935 434.332 162.752C434.332 158.037 435.476 154.423 437.764 151.91C440.07 149.379 443.328 148.114 447.54 148.114C451.579 148.114 454.647 149.388 456.744 151.936C458.842 154.467 459.89 158.159 459.89 163.012V165.17H442.626C442.748 167.423 443.432 169.009 444.68 169.928C445.928 170.829 448.078 171.28 451.128 171.28C452.238 171.28 453.399 171.202 454.612 171.046C455.843 170.873 457.074 170.647 458.304 170.37V176.584C456.779 176.931 455.34 177.173 453.988 177.312C452.636 177.468 451.293 177.546 449.958 177.546ZM447.462 153.366C445.92 153.366 444.732 153.877 443.9 154.9C443.086 155.923 442.652 157.76 442.6 160.412H452.168C452.116 157.777 451.692 155.949 450.894 154.926C450.114 153.886 448.97 153.366 447.462 153.366ZM463.956 177V148.556H470.794L471.34 151.468H471.73C473.758 149.232 476.419 148.114 479.712 148.114C481.238 148.114 482.624 148.409 483.872 148.998C485.12 149.57 486.143 150.506 486.94 151.806C488.171 150.489 489.523 149.544 490.996 148.972C492.487 148.4 493.978 148.114 495.468 148.114C497.288 148.114 498.909 148.487 500.33 149.232C501.752 149.96 502.87 151.147 503.684 152.794C504.499 154.423 504.906 156.59 504.906 159.294V177H496.638V159.736C496.638 158.037 496.292 156.867 495.598 156.226C494.905 155.567 494.012 155.238 492.92 155.238C492.14 155.238 491.352 155.394 490.554 155.706C489.774 156.001 489.09 156.495 488.5 157.188C488.552 157.777 488.578 158.393 488.578 159.034V177H480.466V159.736C480.466 158.037 480.146 156.867 479.504 156.226C478.863 155.567 477.996 155.238 476.904 155.238C476.055 155.238 475.206 155.437 474.356 155.836C473.507 156.217 472.796 156.807 472.224 157.604V177H463.956ZM521.304 177.52C519.484 177.52 517.612 177.39 515.688 177.13C513.781 176.87 512.005 176.471 510.358 175.934V134.984H518.626V151.338H519.042C519.857 150.315 520.879 149.527 522.11 148.972C523.358 148.4 524.788 148.114 526.4 148.114C528.376 148.114 530.205 148.599 531.886 149.57C533.567 150.541 534.911 152.066 535.916 154.146C536.921 156.226 537.424 158.913 537.424 162.206C537.424 167.215 536.089 171.029 533.42 173.646C530.768 176.246 526.729 177.537 521.304 177.52ZM522.032 171.254C524.372 171.254 526.131 170.613 527.31 169.33C528.506 168.047 529.104 165.889 529.104 162.856C529.104 160.793 528.853 159.19 528.35 158.046C527.865 156.885 527.18 156.07 526.296 155.602C525.429 155.134 524.415 154.9 523.254 154.9C522.405 154.9 521.573 155.039 520.758 155.316C519.943 155.593 519.233 156.018 518.626 156.59V170.838C519.094 170.959 519.614 171.063 520.186 171.15C520.775 171.219 521.391 171.254 522.032 171.254ZM541.83 177V148.556H548.616L549.24 152.222H549.656C550.454 150.818 551.511 149.795 552.828 149.154C554.146 148.495 555.593 148.166 557.17 148.166C557.604 148.166 558.02 148.183 558.418 148.218C558.817 148.253 559.172 148.305 559.484 148.374V155.862C559.051 155.775 558.583 155.723 558.08 155.706C557.595 155.671 557.127 155.654 556.676 155.654C555.463 155.654 554.241 155.888 553.01 156.356C551.78 156.807 550.809 157.474 550.098 158.358V177H541.83ZM574.638 177.546C570.391 177.546 567.02 176.333 564.524 173.906C562.028 171.462 560.78 167.779 560.78 162.856C560.78 157.899 562.002 154.207 564.446 151.78C566.89 149.336 570.287 148.114 574.638 148.114C578.988 148.114 582.386 149.336 584.83 151.78C587.274 154.224 588.496 157.899 588.496 162.804C588.496 167.744 587.248 171.436 584.752 173.88C582.256 176.324 578.884 177.546 574.638 177.546ZM574.638 171.254C576.388 171.254 577.74 170.665 578.694 169.486C579.664 168.29 580.15 166.089 580.15 162.882C580.15 159.606 579.664 157.37 578.694 156.174C577.723 154.978 576.371 154.38 574.638 154.38C572.904 154.38 571.552 154.978 570.582 156.174C569.611 157.353 569.126 159.554 569.126 162.778C569.126 166.037 569.602 168.264 570.556 169.46C571.526 170.656 572.887 171.254 574.638 171.254Z" fill="#C4160C"/>
</svg>
